<svg aria-hidden="true" width="200" id="logo-footer" data-name="Suite Spot Logo" xmlns="http://www.w3.org/2000/svg" viewBox="0 0 136 33">
  <g>
    <path fill="#fff" d="M28.72,16.61c.02-1.85.07-3.62.14-5.04h.12l4.13,5.35c.22.07.38.1.65.1,1.51,0,2.69-.79,2.69-2.3,0-3.96-7.49-3.98-7.49-8.88,0-2.76,2.4-4.46,6.14-4.46,1.66,0,3.22.34,4.46.94,0,1.18-.07,3.02-.17,4.8h-.12l-3.79-5.11c-.17-.1-.34-.14-.62-.14-1.22,0-2.18.7-2.18,1.9,0,3.77,7.46,4.18,7.46,9.31,0,2.83-2.35,4.44-6.38,4.44-1.87,0-3.86-.36-5.04-.89Z"/>
    <path fill="#fff" d="M54.97,16.42c-.55.72-1.42,1.03-2.69,1.03-1.49,0-2.59-.65-2.95-1.49-.89.91-2.28,1.49-3.53,1.49-2.23,0-3.38-1.1-3.38-3.43v-7.37h-1.1v-.46h5.26v8.47c0,.91.41,1.46,1.32,1.46.46,0,.86-.17,1.27-.53V6.65h-1.13v-.46h5.28v9.19c0,.67.36.94.84.94.19,0,.38-.02.7-.14l.12.24Z"/>
    <path fill="#fff" d="M61.81,17.16v.05h-6.38v-.05c.38-.31.72-.58,1.22-.89V6.65h-1.01v-.46h5.16v10.08c.41.31.7.58,1.01.89ZM56.24,2.42C56.24,1.01,57.25.02,58.69,0c1.46-.02,2.47,1.01,2.47,2.42s-1.01,2.45-2.47,2.45-2.45-1.03-2.45-2.45Z"/>
    <path fill="#fff" d="M70.76,16.08c-.55.77-1.7,1.37-3.22,1.37-2.21,0-3.6-1.22-3.6-3.65v-7.15h-1.63v-.19l1.82-.58c1.01-1.1,2.5-2.59,3.84-3.86h.12v4.18h2.57v.46h-2.57v8.09c0,1.03.46,1.58,1.27,1.58.43,0,.86-.14,1.22-.48l.17.24Z"/>
    <path fill="#fff" d="M81.56,10.87h-6.19c.19,3.02,1.32,4.25,3.58,4.25,1.01,0,1.8-.26,2.54-.77l.07.07c-.79,1.78-2.45,3.02-4.9,3.02-3.26,0-5.47-2.18-5.47-5.57,0-3.77,2.71-5.93,5.69-5.93,2.81,0,4.68,1.97,4.68,4.44v.48ZM77.94,10.39c0-2.98-.31-4.06-1.18-4.06s-1.42,1.06-1.42,3.6v.46h2.59Z"/>
    <path fill="#fff" d="M88.04,16.61c.02-1.85.07-3.62.14-5.04h.12l4.13,5.35c.22.07.38.1.65.1,1.51,0,2.69-.79,2.69-2.3,0-3.96-7.49-3.98-7.49-8.88,0-2.76,2.4-4.46,6.14-4.46,1.66,0,3.22.34,4.46.94,0,1.18-.07,3.02-.17,4.8h-.12l-3.79-5.11c-.17-.1-.34-.14-.62-.14-1.22,0-2.18.7-2.18,1.9,0,3.77,7.46,4.18,7.46,9.31,0,2.83-2.35,4.44-6.38,4.44-1.87,0-3.86-.36-5.04-.89Z"/>
    <path fill="#fff" d="M106.02,17.31v3.98c.6.31,1.08.58,1.56.89v.05h-6.91v-.05c.38-.31.72-.58,1.2-.89V6.65h-1.2v-.46h5.35v1.06c.77-.77,1.73-1.3,3-1.3,2.54,0,4.27,2.06,4.27,5.33,0,4.34-2.45,6.17-5.81,6.17-.55,0-1.01-.05-1.46-.14ZM106.02,7.87v8.67c.31.26.62.36.96.36,1.13,0,1.94-1.06,1.94-5.04s-.82-4.58-1.7-4.58c-.41,0-.77.12-1.2.6Z"/>
    <path fill="#fff" d="M114.54,11.69c0-3.38,2.54-5.76,6.05-5.76s6.07,2.38,6.07,5.76-2.54,5.78-6.07,5.78-6.05-2.3-6.05-5.78ZM122.27,11.69c0-4.01-.43-5.38-1.68-5.38s-1.66,1.37-1.66,5.38.43,5.4,1.61,5.4c1.25,0,1.73-1.39,1.73-5.4Z"/>
    <path fill="#fff" d="M135.61,16.08c-.55.77-1.7,1.37-3.22,1.37-2.21,0-3.6-1.22-3.6-3.65v-7.15h-1.63v-.19l1.82-.58c1.01-1.1,2.5-2.59,3.84-3.86h.12v4.18h2.57v.46h-2.57v8.09c0,1.03.46,1.58,1.27,1.58.43,0,.86-.14,1.22-.48l.17.24Z"/>
  </g>
  <g>
    <rect fill="none" x="5.74" y="4.97" width="9.38" height="9.38"/>
    <polygon fill="var(--secondary-10)" points="15.12 14.34 5.74 14.34 5.74 4.97 4.03 4.97 4.03 3.26 1.43 3.26 1.43 18.66 16.83 18.66 16.83 16.06 15.12 16.06 15.12 14.34"/>
    <polygon fill="var(--primary-9)" points="19.43 .66 4.03 .66 4.03 3.26 5.74 3.26 5.74 4.97 15.12 4.97 15.12 14.34 16.83 14.34 16.83 16.06 19.43 16.06 19.43 .66"/>
  </g>
  <g>
    <path fill="#fff" d="M22.42,32.01v-1.08c.68.28,1.26.43,1.75.43.34,0,.61-.08.8-.23.19-.15.29-.36.29-.62,0-.21-.06-.38-.18-.52s-.35-.31-.7-.5l-.42-.24c-.57-.32-.97-.62-1.2-.92-.23-.29-.35-.63-.35-1.02,0-.52.19-.94.57-1.26.38-.32.89-.47,1.52-.47.5,0,1.07.07,1.7.22v1.01c-.65-.24-1.16-.36-1.53-.36-.29,0-.52.06-.7.19-.18.13-.26.3-.26.51,0,.17.06.33.18.46.12.13.35.29.69.48l.45.25c.61.34,1.03.66,1.26.94.23.29.35.64.35,1.05,0,.59-.22,1.05-.65,1.38-.44.33-1.04.5-1.8.5-.51,0-1.1-.07-1.77-.21Z"/>
    <path fill="#fff" d="M29.78,32.06v-5.46h-2.26v-.87h5.85v.87h-2.26v5.46h-1.32Z"/>
    <path fill="#fff" d="M34.64,25.74h1.32v3.88c0,.61.1,1.05.3,1.33s.53.41.98.41.74-.13.93-.39c.19-.26.29-.68.29-1.25v-3.97h1.15v3.88c0,.58-.06,1.03-.17,1.33s-.31.57-.61.8c-.4.31-.94.47-1.62.47-.73,0-1.31-.17-1.75-.5-.31-.23-.52-.5-.64-.81-.12-.31-.18-.75-.18-1.31v-3.87Z"/>
    <path fill="#fff" d="M41.57,32.06v-6.32h2.72c.98,0,1.73.26,2.25.78.52.52.78,1.27.78,2.25,0,1.04-.28,1.85-.83,2.43-.55.58-1.33.87-2.32.87h-2.61ZM42.89,31.17h.98c.69,0,1.21-.19,1.55-.57.34-.38.51-.96.51-1.75,0-.6-.14-1.11-.41-1.51-.19-.28-.41-.47-.68-.57-.26-.11-.65-.16-1.16-.16h-.79v4.56Z"/>
    <path fill="#fff" d="M48.95,32.06v-6.32h3.95v.87h-2.64v1.76h2.16v.85h-2.16v1.95h2.84v.9h-4.15Z"/>
    <path fill="#fff" d="M54.64,32.06v-6.32h1.16l2.93,4.32v-4.32h1.06v6.32h-1.18l-2.91-4.32v4.32h-1.06Z"/>
    <path fill="#fff" d="M63.37,32.06v-5.46h-2.26v-.87h5.85v.87h-2.26v5.46h-1.32Z"/>
    <path fill="#fff" d="M71.6,32.06v-6.32h1.32v2.57h2.61v-2.57h1.32v6.32h-1.32v-2.88h-2.61v2.88h-1.32Z"/>
    <path fill="#fff" d="M81.63,32.22c-.96,0-1.73-.3-2.3-.91s-.86-1.41-.86-2.41.29-1.82.87-2.42,1.36-.9,2.34-.9,1.76.3,2.33.9.87,1.4.87,2.41-.29,1.84-.87,2.44-1.37.89-2.38.89ZM81.65,31.35c.56,0,1.01-.22,1.34-.66.33-.44.49-1.04.49-1.8s-.17-1.32-.5-1.77-.77-.67-1.31-.67-.99.22-1.32.67c-.33.44-.49,1.04-.49,1.78s.16,1.33.49,1.78c.33.45.76.67,1.29.67Z"/>
    <path fill="#fff" d="M86.45,25.74h1.32v3.88c0,.61.1,1.05.3,1.33s.53.41.98.41.74-.13.93-.39c.19-.26.29-.68.29-1.25v-3.97h1.15v3.88c0,.58-.06,1.03-.17,1.33s-.31.57-.61.8c-.4.31-.94.47-1.62.47-.73,0-1.31-.17-1.75-.5-.31-.23-.52-.5-.64-.81-.12-.31-.18-.75-.18-1.31v-3.87Z"/>
    <path fill="#fff" d="M93.03,32.01v-1.08c.68.28,1.26.43,1.75.43.34,0,.61-.08.8-.23.19-.15.29-.36.29-.62,0-.21-.06-.38-.18-.52s-.35-.31-.7-.5l-.42-.24c-.57-.32-.97-.62-1.2-.92-.23-.29-.35-.63-.35-1.02,0-.52.19-.94.57-1.26.38-.32.89-.47,1.52-.47.5,0,1.07.07,1.7.22v1.01c-.65-.24-1.16-.36-1.53-.36-.29,0-.52.06-.7.19-.18.13-.26.3-.26.51,0,.17.06.33.18.46.12.13.35.29.69.48l.45.25c.61.34,1.03.66,1.26.94.23.29.35.64.35,1.05,0,.59-.22,1.05-.65,1.38-.44.33-1.04.5-1.8.5-.51,0-1.1-.07-1.77-.21Z"/>
    <path fill="#fff" d="M98.82,32.06v-6.32h1.32v6.32h-1.32Z"/>
    <path fill="#fff" d="M102.16,32.06v-6.32h1.16l2.93,4.32v-4.32h1.06v6.32h-1.18l-2.91-4.32v4.32h-1.06Z"/>
    <path fill="#fff" d="M114.37,31.92c-.79.21-1.48.31-2.05.31-1.09,0-1.93-.29-2.51-.86-.59-.57-.88-1.4-.88-2.47s.29-1.88.88-2.45,1.42-.86,2.5-.86c.69,0,1.38.08,2.06.24v1.03c-.79-.27-1.44-.41-1.94-.41-.67,0-1.19.21-1.55.64s-.55,1.03-.55,1.82.19,1.35.59,1.78c.39.43.93.65,1.61.65.15,0,.33-.02.53-.06v-2.08h1.32v2.72Z"/>
  </g>
</svg>