<svg aria-hidden="true" width="200" id="logo-footer" data-name="Suite Spot Logo" xmlns="http://www.w3.org/2000/svg" viewBox="0 0 135.22 23.27">
  <g>
    <path fill="#fff" d="M28.32,16.61c.02-1.85.07-3.62.14-5.04h.12l4.13,5.35c.22.07.38.1.65.1,1.51,0,2.69-.79,2.69-2.3,0-3.96-7.49-3.98-7.49-8.88,0-2.76,2.4-4.46,6.14-4.46,1.66,0,3.22.34,4.46.94,0,1.18-.07,3.02-.17,4.8h-.12l-3.79-5.11c-.17-.1-.34-.14-.62-.14-1.22,0-2.18.7-2.18,1.9,0,3.77,7.46,4.18,7.46,9.31,0,2.83-2.35,4.44-6.38,4.44-1.87,0-3.86-.36-5.04-.89Z"/>
    <path fill="#fff" d="M54.58,16.42c-.55.72-1.42,1.03-2.69,1.03-1.49,0-2.59-.65-2.95-1.49-.89.91-2.28,1.49-3.53,1.49-2.23,0-3.38-1.1-3.38-3.43v-7.37h-1.1v-.46h5.26v8.47c0,.91.41,1.46,1.32,1.46.46,0,.86-.17,1.27-.53V6.65h-1.13v-.46h5.28v9.19c0,.67.36.94.84.94.19,0,.38-.02.7-.14l.12.24Z"/>
    <path fill="#fff" d="M61.42,17.16v.05h-6.38v-.05c.38-.31.72-.58,1.22-.89V6.65h-1.01v-.46h5.16v10.08c.41.31.7.58,1.01.89ZM55.85,2.42C55.85,1.01,56.86.02,58.3,0c1.46-.02,2.47,1.01,2.47,2.42s-1.01,2.45-2.47,2.45-2.45-1.03-2.45-2.45Z"/>
    <path fill="#fff" d="M70.37,16.08c-.55.77-1.7,1.37-3.22,1.37-2.21,0-3.6-1.22-3.6-3.65v-7.15h-1.63v-.19l1.82-.58c1.01-1.1,2.5-2.59,3.84-3.86h.12v4.18h2.57v.46h-2.57v8.09c0,1.03.46,1.58,1.27,1.58.43,0,.86-.14,1.22-.48l.17.24Z"/>
    <path fill="#fff" d="M81.17,10.87h-6.19c.19,3.02,1.32,4.25,3.58,4.25,1.01,0,1.8-.26,2.54-.77l.07.07c-.79,1.78-2.45,3.02-4.9,3.02-3.26,0-5.47-2.18-5.47-5.57,0-3.77,2.71-5.93,5.69-5.93,2.81,0,4.68,1.97,4.68,4.44v.48ZM77.55,10.39c0-2.98-.31-4.06-1.18-4.06s-1.42,1.06-1.42,3.6v.46h2.59Z"/>
    <path fill="#fff" d="M87.65,16.61c.02-1.85.07-3.62.14-5.04h.12l4.13,5.35c.22.07.38.1.65.1,1.51,0,2.69-.79,2.69-2.3,0-3.96-7.49-3.98-7.49-8.88,0-2.76,2.4-4.46,6.14-4.46,1.66,0,3.22.34,4.46.94,0,1.18-.07,3.02-.17,4.8h-.12l-3.79-5.11c-.17-.1-.34-.14-.62-.14-1.22,0-2.18.7-2.18,1.9,0,3.77,7.46,4.18,7.46,9.31,0,2.83-2.35,4.44-6.38,4.44-1.87,0-3.86-.36-5.04-.89Z"/>
    <path fill="#fff" d="M105.63,17.31v3.98c.6.31,1.08.58,1.56.89v.05h-6.91v-.05c.38-.31.72-.58,1.2-.89V6.65h-1.2v-.46h5.35v1.06c.77-.77,1.73-1.3,3-1.3,2.54,0,4.27,2.06,4.27,5.33,0,4.34-2.45,6.17-5.81,6.17-.55,0-1.01-.05-1.46-.14ZM105.63,7.87v8.67c.31.26.62.36.96.36,1.13,0,1.94-1.06,1.94-5.04s-.82-4.58-1.7-4.58c-.41,0-.77.12-1.2.6Z"/>
    <path fill="#fff" d="M114.15,11.69c0-3.38,2.54-5.76,6.05-5.76s6.07,2.38,6.07,5.76-2.54,5.78-6.07,5.78-6.05-2.3-6.05-5.78ZM121.88,11.69c0-4.01-.43-5.38-1.68-5.38s-1.66,1.37-1.66,5.38.43,5.4,1.61,5.4c1.25,0,1.73-1.39,1.73-5.4Z"/>
    <path fill="#fff" d="M135.22,16.08c-.55.77-1.7,1.37-3.22,1.37-2.21,0-3.6-1.22-3.6-3.65v-7.15h-1.63v-.19l1.82-.58c1.01-1.1,2.5-2.59,3.84-3.86h.12v4.18h2.57v.46h-2.57v8.09c0,1.03.46,1.58,1.27,1.58.43,0,.86-.14,1.22-.48l.17.24Z"/>
  </g>
  <g>
    <rect fill="none" x="5.35" y="4.97" width="9.38" height="9.38"/>
    <polygon fill="var(--secondary-10)" points="14.73 14.34 5.35 14.34 5.35 4.97 3.64 4.97 3.64 3.26 1.04 3.26 1.04 18.66 16.44 18.66 16.44 16.06 14.73 16.06 14.73 14.34"/>
    <polygon fill="var(--primary-9)" points="19.04 .66 3.64 .66 3.64 3.26 5.35 3.26 5.35 4.97 14.73 4.97 14.73 14.34 16.44 14.34 16.44 16.06 19.04 16.06 19.04 .66"/>
  </g>
</svg>